<svg xmlns="http://www.w3.org/2000/svg" viewBox="0 0 512 512">
  <defs>
    <linearGradient id="lbg" x1="0%" y1="0%" x2="100%" y2="100%">
      <stop offset="0%" stop-color="#1a1a2e"/>
      <stop offset="100%" stop-color="#16213e"/>
    </linearGradient>
    <linearGradient id="ldrop" x1="20%" y1="0%" x2="80%" y2="100%">
      <stop offset="0%" stop-color="#F97316"/>
      <stop offset="100%" stop-color="#EA580C"/>
    </linearGradient>
    <linearGradient id="lshine" x1="0%" y1="0%" x2="60%" y2="100%">
      <stop offset="0%" stop-color="#ffffff" stop-opacity="0.28"/>
      <stop offset="100%" stop-color="#ffffff" stop-opacity="0"/>
    </linearGradient>
  </defs>
  <rect width="512" height="512" rx="110" fill="url(#lbg)"/>
  <ellipse cx="256" cy="315" rx="115" ry="88" fill="#F97316" opacity="0.15"/>
  <path d="M256 80 C256 80 144 206 144 300 a112 112 0 0 0 224 0 C368 206 256 80 256 80 Z" fill="url(#ldrop)"/>
  <path d="M256 80 C256 80 144 206 144 300 a112 112 0 0 0 224 0 C368 206 256 80 256 80 Z" fill="url(#lshine)"/>
  <path d="M275 222 L244 294 L264 294 L238 378 L292 280 L270 280 Z" fill="white" opacity="0.9"/>
</svg>